<svg width="395" height="80" viewBox="0 0 395 80" fill="none" xmlns="http://www.w3.org/2000/svg">
<g filter="url(#filter0_d)">
<path fill-rule="evenodd" clip-rule="evenodd" d="M336 45C351.494 45 364.493 34.3225 368.042 19.9246C369.1 15.6347 372.582 12 377 12C381.418 12 385 15.5817 385 20V62C385 67.5228 380.523 72 375 72H20C14.4771 72 10 67.5228 10 62V22C10 16.4772 14.4772 12 20 12H293C298.523 12 302.849 16.5784 304.495 21.8501C308.685 35.2643 321.205 45 336 45Z" fill="white"/>
</g>
<defs>
<filter id="filter0_d" x="0" y="0" width="395" height="80" filterUnits="userSpaceOnUse" color-interpolation-filters="sRGB">
<feFlood flood-opacity="0" result="BackgroundImageFix"/>
<feColorMatrix in="SourceAlpha" type="matrix" values="0 0 0 0 0 0 0 0 0 0 0 0 0 0 0 0 0 0 127 0"/>
<feOffset dy="-2"/>
<feGaussianBlur stdDeviation="5"/>
<feColorMatrix type="matrix" values="0 0 0 0 0.0406955 0 0 0 0 0.237957 0 0 0 0 0.500971 0 0 0 0.1 0"/>
<feBlend mode="normal" in2="BackgroundImageFix" result="effect1_dropShadow"/>
<feBlend mode="normal" in="SourceGraphic" in2="effect1_dropShadow" result="shape"/>
</filter>
</defs>
</svg>
